<svg xmlns="http://www.w3.org/2000/svg" viewBox="0 0 554 153" width="150" height="100">
  <path fill="#323E46" d="M124.68 19.773c2.442 2.269 2.557 4.402 2.695 7.602-.056 3.478-.158 4.347-2.375 7.188-3.74 1.792-6.952 2.049-11 1.437-2.567-1.356-4.637-2.618-6.938-4.313-11.05-7.532-22.188-9.733-35.527-8.32C59.787 25.674 48.333 31.337 41 41c-9.99 15.31-14.625 30.794-11.026 49.057 3.094 13.395 10.69 25 22.026 32.943 11.67 7.045 24.465 9.407 37.871 6.824 7.306-1.924 13.802-4.76 20.004-9.074 3.39-2.357 5.85-3.94 10.125-3.75 3.313 1.375 3.313 1.375 6 4 1.24 3.107 1.488 5.694 1 9-3.43 7.46-12.74 11.96-20 14.775-20.044 7.099-40.035 7.585-59.438-1.588-5.327-2.88-10.02-6.19-14.562-10.187l-2.238-1.918C21.282 122.355 14.406 110.402 11 98l-.676-2.418C5.925 76.28 8.77 54.609 19.008 37.68 30.24 20.43 46.063 9.044 66.375 4.688c22.004-3.312 40.835 1.549 58.305 15.085Z"/>
  <path fill="#524C4C" d="M226.258 59.883c12.473 11.714 16.405 26.454 16.95 43.08.1 4.551.118 9.101.108 13.653-.004 2.841.02 5.682.045 8.523.003 1.827.003 3.655.002 5.482l.028 2.541c-.042 5.339-.732 9.16-3.391 13.838-3.068 2.017-5.578 2.26-9.205 2.29l-3.148.04-3.393.006-3.522.02c-2.463.01-4.927.015-7.39.015-3.734.004-7.466.04-11.2.078-2.4.006-4.8.01-7.2.012l-3.339.043c-11.091-.063-21.692-2.702-30.603-9.504l-2.05-1.523c-9.455-7.585-15.42-19.51-16.95-31.477-1.238-17.234 2.038-30.289 12.668-44.18 7.9-8.964 20.511-14.494 32.246-15.71 15.15-.538 27.626 3.001 39.344 12.773ZM167 77c-6.166 9.8-7.87 20.559-5.352 31.926 3.324 9.133 10.16 16.381 18.727 20.824 7.58 2.603 17.19 2.673 24.625-.375 8.688-4.695 14.575-11.413 17.852-20.82 2.132-8.844 1.544-18.285-2.559-26.461-4.515-7.312-10.508-13.124-18.48-16.406-13.99-2.523-25.336.358-34.813 11.312Z"/>
  <path fill="#B77B5E" d="M535 61c11.867 13.208 14.845 27.508 14.175 44.648-.894 12.026-7.345 23.571-16.109 31.727C519.598 147.966 505.686 150.473 489 149c-13.281-2.128-24.556-9.834-32.422-20.61-8.003-12.124-10.257-26.181-8.11-40.519 2.85-13.01 8.944-24.647 20.34-32.045C489.922 43.251 516.364 43.72 535 61Zm-59.277 12.93c-7.858 9.443-8.62 19.972-7.984 31.72.966 8.7 6.266 15.465 12.921 20.791 8.052 5.364 17.545 5.883 26.926 4.055 8.205-2.45 13.634-6.781 18.125-14.047 5.122-9.731 5.552-19.459 2.851-30.011-2.795-8.299-8.053-14.907-15.875-19-12.855-5.012-26.777-3.173-36.964 6.492Z"/>
  <path fill="#966E5C" d="M400.625 59.188c6.368 6.315 8.864 13.52 9.402 22.382-.128 11.441-6.243 21.299-13.87 29.485-7.87 7.1-16.03 8.414-26.259 8.218-6.664-.467-9.746-2.853-14.21-7.71-4.939-5.832-5.129-11.57-4.997-18.981.59-6.833 2.514-12.314 7.622-17.02C363.798 71.433 369.06 69.148 376 70c4.275 1.422 7.313 3.313 10.5 6.5 2.611 6.092 2.675 12.208.441 18.465-3.229 6.679-3.229 6.679-5.941 8.035-4.14.565-5.7.196-9.25-2.125-2.976-3.111-4.247-4.603-4.75-8.875 1.034-2.86 2.41-5.413 4-8l4 1 1 9h2c1.592-5.57 2.207-10.211 2-16-4.134-.992-6.26-1.37-10.125.563-4.854 4.115-8.67 8.055-9.875 14.437.012 8.64.012 8.64 4 16 4.441 2.874 9.054 2.023 14 1 8.242-2.7 13.508-7.586 17.957-14.875C399.313 88.288 400.284 81.507 399 74c-3.077-6.072-6.853-10.917-13-14-8.67-2.716-21.731-4.077-30.23-.727C347.33 64.535 342.798 73.08 339 82l-1.035 2.32c-4.248 11.341-3.506 25.965 1.422 36.875 4.868 8.464 11.428 14.87 20.808 17.805 11.78 2.9 24.549 2.863 35.285-3.46a145.154 145.154 0 0 0 4.512-3.138C402 131 402 131 404.132 130.066c2.388-1.363 2.75-2.582 3.868-5.066a255.862 255.862 0 0 1 3.813-5.125C419.8 109.002 424.132 98.657 423 85c-1.167-5.974-4.561-10.482-8.078-15.336A249.262 249.262 0 0 1 409 61.062l-1.813-2.714L406 56l1-3c4.896.438 7.852 2.886 11.438 6l1.741 1.501C424.693 64.506 428.274 68.568 431 74l1.016 1.96c4.715 11.189 2.667 24.553-1.461 35.528-7.697 17.385-18.974 28.843-36.59 36.426-3.872 1.418-6.834 1.95-10.965 2.086l-2.215.113c-15.365.473-28.99-2.93-40.785-13.113-10.424-11.44-14.448-25.977-14.273-41.3.87-11.785 4.482-21.975 11.273-31.7l1.79-2.602c2.67-2.897 5.57-4.447 9.085-6.086l1.816-.892c16.538-7.982 36.383-7.305 50.934 4.767Z"/>
  <path fill="#745D53" d="M318.063 7.313c2.667 2.323 3.84 4.047 4.375 7.562-.582 4.151-2.277 5.49-5.438 8.125-2.567 1.284-4.904 1.434-7.75 1.813-6.531 1.07-10.299 2.748-14.5 8-2.557 4.657-3.678 9.179-4.3 14.414L290 51l1.94.012c2.917.033 5.832.104 8.748.175 1.51.01 1.51.01 3.052.018 7.48.222 7.48.222 11.432 3.123 2.406 3.517 2.512 5.494 1.828 9.672-2.355 3.196-4.18 4.28-8 5-1.514.078-3.03.108-4.547.098l-2.558-.01-2.645-.025-2.691-.014c-2.187-.012-4.373-.028-6.559-.049l.013 2.744c.04 8.535.071 17.069.09 25.603.011 4.387.025 8.775.048 13.162.022 4.234.034 8.468.039 12.702.003 1.616.01 3.231.021 4.847.015 2.262.017 4.524.016 6.787l.014 3.903c-.227 3.063-.558 4.728-2.241 7.252-2.983 2.294-6.22 2.332-9.902 2.559-3.361-.895-5.351-2.636-7.098-5.559-.784-3.938-.745-7.842-.742-11.848l-.055-3.588c-.052-3.876-.066-7.75-.078-11.626-.017-2-.035-4.001-.054-6.001-.081-8.646-.087-17.29-.071-25.937l.003-3.527c.01-6.192.05-12.382.143-18.573.027-1.826.05-3.653.066-5.48.167-15.328 1.707-28.116 12.858-39.541 8.933-8.481 22.745-14.815 34.993-9.567Z"/>
  <path fill="#946957" d="M380 76c2.375.438 2.375.438 5 2 2.5 5.369 2.1 10.527.8 16.152C385 96 385 96 382 98l-2-1c.573-2.867.861-3.861 3-6l-4-1 .219-2.047.281-2.703.281-2.672c.275-2.811.275-2.811.219-6.578Z"/>
  <path fill="#977867" d="M327 87h2l-.016 1.712c-.02 2.555-.034 5.109-.046 7.663l-.026 2.695-.01 2.578-.016 2.38c-.012 2.05-.012 2.05 1.114 3.972l.375 2.75c.477 3.314.477 3.314 2.188 6.25 1.574 3.286 1.694 5.405 1.437 9h-2c-4.97-12.69-8.15-25.367-5-39Z"/>
  <path fill="#252322" d="M242 98h1v42l-2 1c-1.354-3.991-1.045-8.011-.914-12.16l.064-2.383c.046-1.658.095-3.317.147-4.975.078-2.539.145-5.078.21-7.617l.141-4.838.06-2.3c.104-3.144.291-5.725 1.292-8.727Z"/>
  <path fill="#967664" d="M389 139v2l-16 4-1 4c-1.437.054-2.875.093-4.313.125l-2.425.07C363 149 363 149 360 147l3.25-.25c3.75-.359 3.75-.359 5.477-2.688 3.119-2.83 6.37-3.2 10.398-3.812l2.207-.379C386.511 139 386.511 139 389 139Z"/>
  <path fill="#2D3537" d="M13 51c1.297 3.892 1.13 6.894 1 11l-1 2h-2l-1 23H9c-.721-26.557-.721-26.557 4-36Z"/>
  <path fill="#2C373D" d="M14 105h3v3l1-2h2c1.625 2 1.625 2 3 4l-2 1v4l2 2c-.375 2.125-.375 2.125-1 4-1.339-2.289-2.671-4.58-4-6.875l-1.156-1.973C14 107.227 14 107.227 14 105Z"/>
  <path fill="#263030" d="M124.25 119c2.428 2.775 2.657 5.218 2.934 8.836C127 130 127 130 125.063 132.563L123 134l1.125-2.188c1.08-3.47.393-4.607-1.125-7.812v-3c-2.405-1.203-3.95-1.1-6.625-1.063l-2.477.028L112 120c3.972-3.972 7.487-3.117 12.25-1Z"/>
  <path fill="#927262" d="M382 52c4.714.48 8.666.968 13 3l-.879 6.055c-.29 2.026-.29 2.026.879 3.945-2.884-1.293-4.872-2.66-7-5l3-1v-3l-9-2v-2Z"/>
  <path fill="#292F33" d="M41 16v2h-2v2l-2.25 1.25c-3.3 2.1-4.635 4.506-6.75 7.75l-3 1a141.135 141.135 0 0 0-5 5c2.72-5.955 11.934-19 19-19Z"/>
  <path fill="#2A3336" d="M70 5c-3.14 1.686-6.292 2.801-9.688 3.875A128.107 128.107 0 0 0 45 15c1-3 1-3 3.258-4.316C62.21 4.62 62.21 4.62 70 5Z"/>
  <path fill="#2E363A" d="M27 71h1l.367 3.84.508 5.097.238 2.518C29.684 88.1 30.675 93.483 32 99l-4-1c-.84-9.023-1.122-17.94-1-27Z"/>
  <path fill="#957062" d="m371 84 4 1 1 7-2 1v-3l-6 3c.498-3.735.875-5.812 3-9Z"/>
  <path fill="#986956" d="M344 132c1.342.65 2.675 1.317 4 2h3c-1.477 4.677-1.477 4.677-4.125 6.313L345 141c-1.945-2.918-2.453-4.625-3-8l2-1Z"/>
  <path fill="#947460" d="m416 114 2 2-4 6 1 2-4 3-2-1-1 3h-2c1.622-3.585 3.793-6.59 6.125-9.75l2.195-2.984L416 114Z"/>
  <path fill="#997C67" d="m352 86 3 1-1 1a210.174 210.174 0 0 0-.063 8.063l.014 2.298c.012 1.88.03 3.76.049 5.639l-2 1c-1.479-2.958-1.132-5.648-1.125-8.938l-.008-3.777C351 89 351 89 352 86Z"/>
  <path fill="#2A3135" d="m51 142 6 2v2l3-1 1 1c2.333.04 4.667.042 7 0v2l2 1c-7.602-.33-13.973-2.128-21-5l2-2Z"/>
  <path fill="#937366" d="M426 119c-1.35 3.837-3.078 6.652-5.625 9.813l-1.914 2.394L417 133l-1-3a210.028 210.028 0 0 1 4-5v-3c2.06-2.649 2.52-3 6-3Z"/>
  <path fill="#63594B" d="m310 67-1 2h-16l-1-2c2.062-.196 4.124-.382 6.188-.563l3.48-.316c3.018-.11 5.421.139 8.332.879Z"/>
  <path fill="#46433C" d="M147 121c2.09 1.805 3.001 3.003 4 5.625l1 2.375 3 1a264.271 264.271 0 0 1 3 5l3 2-1 2c-5.931-4.508-9.706-9.292-13-16v-2Z"/>
  <path fill="#A06153" d="m374 90 2 4h2l1-2-1 4-2.75-1.125c-3.131-1.179-3.131-1.179-5.625 0L368 96l-1-4c4.75-2 4.75-2 7-2Z"/>
  <path fill="#8F6F5E" d="M378 113h2v3l7-1v2c-3.772 1.752-6.667 2.225-10.813 2.125l-2.957-.055L371 119v-1l7-1v-4Z"/>
  <path fill="#AC7C65" d="m473 119 1.285 1.172c4.018 3.567 7.969 6.31 12.715 8.828l-2 2c-9.488-4.937-9.488-4.937-11.625-9.375L473 119Z"/>
  <path fill="#A77B65" d="m542 120 3 1a1099.569 1099.569 0 0 1-3.375 5.438l-1.898 3.058C538 132 538 132 536 133c.375-2.438.375-2.438 1-5l2-1a160.565 160.565 0 0 0 3-7Z"/>
  <path fill="#9A6856" d="m394 56 4 1v4l-2 2v3l-3-1c0-3.273.3-5.847 1-9Z"/>
  <path fill="#9A6753" d="m394 98 4 1-2 3 3 1h-2l-1 5-4-2 1-4h2l-1-4Z"/>
  <path fill="#A67C66" d="m466 82 4 1-2 14h-1l-1-15Z"/>
  <path fill="#9A7868" d="M374 49v2a668.813 668.813 0 0 1-15 2l-1-2c5.38-1.19 10.453-2.292 16-2Z"/>
  <path fill="#2E3537" d="m38 110 2 2.063c2.972 2.997 6.185 5.685 9.426 8.386L51 122v2c-5.978-2.657-9.698-6.374-13-12v-2Z"/>
  <path fill="#67554C" d="M303 24v2a748.858 748.858 0 0 1-6 4l-2 3h-2v-5l2.313-.875C302.777 24 302.777 24 303 24Z"/>
  <path fill="#2D3338" d="M29 128c5.71 1.088 7.744 3.775 10.898 8.32L41 138c-5.257-1.434-8.518-4.996-12-9v-1Z"/>
  <path fill="#9B6755" d="m382 111 5 1 1 5-1-2-6 1 1-5Z"/>
  <path fill="#AB7B65" d="m463 61 2 3-1.75.563c-3.354 2.143-4.43 4.925-6.25 8.437h-2c1.35-5.67 3.816-8.18 8-12Z"/>
  <path fill="#AB7961" d="M501 48c6.717-.32 11.757.52 18 3v1c-3.214.09-5.906-.147-9-1h-2v-2h-7v-1Z"/>
  <path fill="#967C6C" d="M369 97c2.438.375 2.438.375 5 1l1 2c2.322.407 4.657.744 7 1l-1 2c-2.951.351-5.15.529-7.734-1.078-1.488-1.232-2.884-2.573-4.266-3.922v-1Z"/>
  <path fill="#967265" d="m365 78 4 1a367.182 367.182 0 0 1-3.313 4l-1.863 2.25C362 87 362 87 359 87c0-2 0-2 1.313-3.375L362 82c1.018-1.32 2.022-2.65 3-4Z"/>
  <path fill="#4B4644" d="M226 61c6.571 5.143 6.571 5.143 8 9l-3-1-1-2c-2.025-.652-2.025-.652-4-1l-1 2c-.043-2-.04-4 0-6l1-1Z"/>
  <path fill="#AC7D65" d="m463 135 6 2v2l7 2-3 2c-1.67-1.142-3.335-2.289-5-3.438l-2.813-1.933L463 136v-1Z"/>
  <path fill="#927363" d="M351 59h2c-1.443 3.366-3.333 5.51-6 8l-3-1 7-7Z"/>
  <path fill="#AD7863" d="M476 53c-.625 1.875-.625 1.875-2 4-3 1.313-3 1.313-6 2l-2-1c1.288-.839 2.58-1.67 3.875-2.5l2.18-1.406C474 53 474 53 476 53Z"/>
  <path fill="#AD7B66" d="m491.75 47.938 2.422.027L496 48v1c-5.244 1.748-9.473 2.194-15 2 3.2-3.2 6.37-3.127 10.75-3.063Z"/>
  <path fill="#2F373A" d="m93 130-2 4-7-1v-2c3.153-.7 5.727-1 9-1Z"/>
  <path fill="#45413E" d="M144 82h2l1 4h-2l-1 5h-2l2-9Zm4 1 1 2-2-1 1-1Z"/>
  <path fill="#977A6A" d="M407 53c3.242.35 4.615.562 6.813 3.063L415 58l-1.688-.438c-2.426-.59-4.861-1.085-7.312-1.562l1-3Z"/>
  <path fill="#9A6752" d="m370 141 1 3-5 3-3-2 1-3 6 1v-2Z"/>
  <path fill="#A87B64" d="m526 138 4 1a344.799 344.799 0 0 1-4.313 3.063l-2.425 1.722L521 145l-3-1c5.75-4 5.75-4 8-4v-2Z"/>
  <path fill="#262C2E" d="m21 35 2 3-1.875 1.688C18.939 42.066 18.012 43.963 17 47h-2c1.319-4.615 3.214-8.099 6-12Z"/>
  <path fill="#9B6754" d="m399 137 2 2c-1.375 2-1.375 2-3 4h-2v4h-2c.375-2.438.375-2.438 1-5l2-1v-3l2-1Z"/>
  <path fill="#977668" d="m429 107 2 1c-.45 1.482-.91 2.96-1.375 4.438l-.773 2.496C428 117 428 117 426 118c.672-3.806 1.727-7.352 3-11Z"/>
  <path fill="#46433E" d="M235 72c2.001 2.547 3.857 4.953 5 8-.375 2.25-.375 2.25-1 4l-1-5h-2c-1.063-1.813-1.063-1.813-2-4l1-3Z"/>
  <path fill="#9A8066" d="m371 84 4 1 1 7-2 1v-3l-2-1 1-3h-2v-2Z"/>
  <path fill="#927062" d="m330 77 3 1-1 4h-2l-1 4c-1.255-3.766-.37-5.372 1-9Z"/>
  <path fill="#8C6552" d="m345 64 1 5-2 1-4-3c2.75-3 2.75-3 5-3Z"/>
  <path fill="#2D3539" d="m115 14 7 4v3c-2.938-1.25-2.938-1.25-6-3-.875-2.188-.875-2.188-1-4Z"/>
  <path fill="#97786B" d="m416 114 2 2a340.172 340.172 0 0 1-2.375 3.5l-1.336 1.969L413 123h-2c1.498-3.112 3.2-6.053 5-9Z"/>
  <path fill="#8C7161" d="m405 95 1 2c-.996 1.945-.996 1.945-2.438 4.125l-1.433 2.195L401 105l-1-3c.996-1.824.996-1.824 2.438-3.688l1.433-1.886L405 95Z"/>
  <path fill="#947768" d="M400 134v2c-4.153 3.115-4.153 3.115-7.313 2.688L391 138c6.75-4 6.75-4 9-4Z"/>
  <path fill="#AB7660" d="m520 73 1.813 1c2.24 1.208 2.24 1.208 5.187 1l1 3c-3.242-.35-4.615-.562-6.813-3.063L520 73Z"/>
</svg>